{
  "accessors": [
    {
      "bufferView": 2,
      "componentType": 5126,
      "count": 5963,
      "max": [
        0.5152238607406616,
        1.0175076723098755,
        0.08937942236661911
      ],
      "min": [
        -0.5254216194152832,
        0.5043789148330688,
        -0.08961408585309982
      ],
      "type": "VEC3"
    },
    {
      "bufferView": 2,
      "byteOffset": 71556,
      "componentType": 5126,
      "count": 5963,
      "max": [
        0.9999640583992004,
        0.9998931288719177,
        0.99998539686203
      ],
      "min": [
        -0.9999696016311646,
        -0.9998719692230225,
        -0.99998539686203
      ],
      "type": "VEC3"
    },
    {
      "bufferView": 1,
      "componentType": 5126,
      "count": 5963,
      "max": [
        0.9847385883331299,
        0.9995005130767822
      ],
      "min": [
        0.00048794972826726735,
        0.000499500660225749
      ],
      "type": "VEC2"
    },
    {
      "bufferView": 0,
      "componentType": 5125,
      "count": 30240,
      "type": "SCALAR"
    },
    {
      "bufferView": 2,
      "byteOffset": 143112,
      "componentType": 5126,
      "count": 715,
      "max": [
        0.4379015266895294,
        0.9043633341789246,
        0.0735836997628212
      ],
      "min": [
        -0.44457975029945374,
        0.004550427198410034,
        -0.07511292397975922
      ],
      "type": "VEC3"
    },
    {
      "bufferView": 2,
      "byteOffset": 151692,
      "componentType": 5126,
      "count": 715,
      "max": [
        0.9992585778236389,
        0.9986275434494019,
        0.9999977350234985
      ],
      "min": [
        -0.9996177554130554,
        -0.9994378685951233,
        -0.9995840191841125
      ],
      "type": "VEC3"
    },
    {
      "bufferView": 1,
      "byteOffset": 47704,
      "componentType": 5126,
      "count": 715,
      "max": [
        0.7177754640579224,
        0.9995004534721375
      ],
      "min": [
        0.0003587007522583008,
        0.0004994869232177734
      ],
      "type": "VEC2"
    },
    {
      "bufferView": 0,
      "byteOffset": 120960,
      "componentType": 5125,
      "count": 3840,
      "type": "SCALAR"
    },
    {
      "bufferView": 2,
      "byteOffset": 160272,
      "componentType": 5126,
      "count": 4502,
      "max": [
        0.5576586127281189,
        1.0997711420059204,
        0.22559036314487457
      ],
      "min": [
        -0.5626512765884399,
        0.5879176259040833,
        -0.2287607640028
      ],
      "type": "VEC3"
    },
    {
      "bufferView": 2,
      "byteOffset": 214296,
      "componentType": 5126,
      "count": 4502,
      "max": [
        0.9984894394874573,
        0.9999252557754517,
        0.9999356269836426
      ],
      "min": [
        -0.9999409914016724,
        -0.9999182224273682,
        -0.9999356269836426
      ],
      "type": "VEC3"
    },
    {
      "bufferView": 1,
      "byteOffset": 53424,
      "componentType": 5126,
      "count": 4502,
      "max": [
        0.9995003938674927,
        0.868628978729248
      ],
      "min": [
        0.0004572272300720215,
        0.00043317675590515137
      ],
      "type": "VEC2"
    },
    {
      "bufferView": 0,
      "byteOffset": 136320,
      "componentType": 5125,
      "count": 22554,
      "type": "SCALAR"
    },
    {
      "bufferView": 2,
      "byteOffset": 268320,
      "componentType": 5126,
      "count": 785,
      "max": [
        0.5365016460418701,
        1.0959935188293457,
        0.17167750000953674
      ],
      "min": [
        -0.5388110280036926,
        0.6225467920303345,
        -0.17023852467536926
      ],
      "type": "VEC3"
    },
    {
      "bufferView": 2,
      "byteOffset": 277740,
      "componentType": 5126,
      "count": 785,
      "max": [
        0.9938733577728271,
        0.9997701644897461,
        0.932009220123291
      ],
      "min": [
        -0.9958741664886475,
        -0.9994522929191589,
        -0.932009220123291
      ],
      "type": "VEC3"
    },
    {
      "bufferView": 1,
      "byteOffset": 89440,
      "componentType": 5126,
      "count": 785,
      "max": [
        0.7987335920333862,
        0.9995005130767822
      ],
      "min": [
        -0.0001754462718963623,
        -0.0011319518089294434
      ],
      "type": "VEC2"
    },
    {
      "bufferView": 1,
      "byteOffset": 95720,
      "componentType": 5126,
      "count": 785,
      "max": [
        0.7987335920333862,
        0.9995005130767822
      ],
      "min": [
        -0.0001754462718963623,
        -0.0011319518089294434
      ],
      "type": "VEC2"
    },
    {
      "bufferView": 0,
      "byteOffset": 226536,
      "componentType": 5125,
      "count": 3420,
      "type": "SCALAR"
    }
  ],
  "asset": {
    "extras": {
      "author": "abdillaamy (https://sketchfab.com/abdillaamy)",
      "license": "CC-BY-4.0 (http://creativecommons.org/licenses/by/4.0/)",
      "source": "https://sketchfab.com/3d-models/high-detailed-ring-type-1871cd1133a64c32a0ad228dce5794fa",
      "title": "High Detailed Ring Type"
    },
    "generator": "Sketchfab-12.66.0",
    "version": "2.0"
  },
  "bufferViews": [
    {
      "buffer": 0,
      "byteLength": 240216,
      "name": "floatBufferViews",
      "target": 34963
    },
    {
      "buffer": 0,
      "byteLength": 102000,
      "byteOffset": 240216,
      "byteStride": 8,
      "name": "floatBufferViews",
      "target": 34962
    },
    {
      "buffer": 0,
      "byteLength": 287160,
      "byteOffset": 342216,
      "byteStride": 12,
      "name": "floatBufferViews",
      "target": 34962
    }
  ],
  "buffers": [
    {
      "byteLength": 629376,
      "uri": "scene.bin"
    }
  ],
  "images": [
    {
      "uri": "textures/Decal_Texture_baseColor.jpeg"
    },
    {
      "uri": "textures/BandTexture_baseColor.jpeg"
    },
    {
      "uri": "textures/blinn4_baseColor.jpeg"
    },
    {
      "uri": "textures/GemTexture_baseColor.jpeg"
    }
  ],
  "materials": [
    {
      "doubleSided": true,
      "name": "Decal_Texture",
      "pbrMetallicRoughness": {
        "baseColorTexture": {
          "index": 0
        },
        "roughnessFactor": 0.1629192073170732
      }
    },
    {
      "doubleSided": true,
      "name": "BandTexture",
      "pbrMetallicRoughness": {
        "baseColorTexture": {
          "index": 1
        },
        "roughnessFactor": 0.11413871951219501
      }
    },
    {
      "doubleSided": true,
      "name": "blinn4",
      "pbrMetallicRoughness": {
        "baseColorTexture": {
          "index": 2
        },
        "roughnessFactor": 0.18121189024390227
      }
    },
    {
      "doubleSided": true,
      "emissiveFactor": [
        0.03755870000000001,
        0.000600934,
        0.000600934
      ],
      "name": "GemTexture",
      "pbrMetallicRoughness": {
        "baseColorTexture": {
          "index": 3
        },
        "metallicFactor": 0.5992759146341463,
        "roughnessFactor": 0.23608993902439024
      }
    }
  ],
  "meshes": [
    {
      "name": "RingType2_Decal_Texture_0",
      "primitives": [
        {
          "attributes": {
            "NORMAL": 1,
            "POSITION": 0,
            "TEXCOORD_0": 2
          },
          "indices": 3,
          "material": 0,
          "mode": 4
        }
      ]
    },
    {
      "name": "RingType2_BandTexture_0",
      "primitives": [
        {
          "attributes": {
            "NORMAL": 5,
            "POSITION": 4,
            "TEXCOORD_0": 6
          },
          "indices": 7,
          "material": 1,
          "mode": 4
        }
      ]
    },
    {
      "name": "RingType2_blinn4_0",
      "primitives": [
        {
          "attributes": {
            "NORMAL": 9,
            "POSITION": 8,
            "TEXCOORD_0": 10
          },
          "indices": 11,
          "material": 2,
          "mode": 4
        }
      ]
    },
    {
      "name": "RingType2_GemTexture_0",
      "primitives": [
        {
          "attributes": {
            "NORMAL": 13,
            "POSITION": 12,
            "TEXCOORD_0": 14,
            "TEXCOORD_1": 15
          },
          "indices": 16,
          "material": 3,
          "mode": 4
        }
      ]
    }
  ],
  "nodes": [
    {
      "children": [
        1
      ],
      "matrix": [
        1.0,
        0.0,
        0.0,
        0.0,
        0.0,
        2.220446049250313e-16,
        -1.0,
        0.0,
        0.0,
        1.0,
        2.220446049250313e-16,
        0.0,
        0.0,
        0.0,
        0.0,
        1.0
      ],
      "name": "Sketchfab_model"
    },
    {
      "children": [
        2
      ],
      "matrix": [
        1.0,
        0.0,
        0.0,
        0.0,
        0.0,
        0.0,
        1.0,
        0.0,
        0.0,
        -1.0,
        0.0,
        0.0,
        0.0,
        0.0,
        0.0,
        1.0
      ],
      "name": "0a155333bddb481c810bbd073e4be237.fbx"
    },
    {
      "children": [
        3
      ],
      "name": "RootNode"
    },
    {
      "children": [
        4,
        5,
        6,
        7
      ],
      "name": "RingType2"
    },
    {
      "mesh": 0,
      "name": "RingType2_Decal_Texture_0"
    },
    {
      "mesh": 1,
      "name": "RingType2_BandTexture_0"
    },
    {
      "mesh": 2,
      "name": "RingType2_blinn4_0"
    },
    {
      "mesh": 3,
      "name": "RingType2_GemTexture_0"
    }
  ],
  "samplers": [
    {
      "magFilter": 9729,
      "minFilter": 9987,
      "wrapS": 10497,
      "wrapT": 10497
    }
  ],
  "scene": 0,
  "scenes": [
    {
      "name": "Sketchfab_Scene",
      "nodes": [
        0
      ]
    }
  ],
  "textures": [
    {
      "sampler": 0,
      "source": 0
    },
    {
      "sampler": 0,
      "source": 1
    },
    {
      "sampler": 0,
      "source": 2
    },
    {
      "sampler": 0,
      "source": 3
    }
  ]
}
